<svg xmlns="http://www.w3.org/2000/svg" viewBox="0 0 64 64" width="64" height="64">
  <defs>
    <linearGradient id="g1" x1="0%" y1="0%" x2="100%" y2="100%">
      <stop offset="0%" stop-color="#f59e0b"/>
      <stop offset="100%" stop-color="#f97316"/>
    </linearGradient>
    <linearGradient id="g2" x1="0%" y1="0%" x2="100%" y2="100%">
      <stop offset="0%" stop-color="#34d399"/>
      <stop offset="100%" stop-color="#059669"/>
    </linearGradient>
  </defs>
  <!-- mortarboard / graduation cap -->
  <path d="M32 10 4 23l28 13 24-11.2V37h4V23L32 10z" fill="url(#g1)"/>
  <path d="M16 33.2V43c0 4.4 7.2 9 16 9s16-4.6 16-9v-9.8l-16 7.4-16-7.4z" fill="url(#g1)" opacity="0.85"/>
  <!-- funding spark -->
  <circle cx="50" cy="47" r="11" fill="url(#g2)" stroke="#070b14" stroke-width="3"/>
  <path d="M50 41.5c-3 0-5.5 2-5.5 4.6 0 3.6 5.5 4.9 5.5 4.9s5.5-1.3 5.5-4.9c0-2.6-2.5-4.6-5.5-4.6z" fill="#070b14" opacity="0"/>
  <text x="50" y="52.5" text-anchor="middle" font-family="Inter, sans-serif" font-size="13" font-weight="800" fill="#063c2b">₹</text>
</svg>
